<?xml version="1.0" encoding="utf-8"?>
<!-- Generator: Adobe Illustrator 24.0.2, SVG Export Plug-In . SVG Version: 6.00 Build 0)  -->
<svg version="1.1" id="Layer_1" xmlns="http://www.w3.org/2000/svg" xmlns:xlink="http://www.w3.org/1999/xlink" x="0px" y="0px"
	 viewBox="0 0 512 512" style="enable-background:new 0 0 512 512;" xml:space="preserve">
<style type="text/css">
	.st0{fill:url(#SVGID_1_);}
	.st1{fill:url(#SVGID_2_);}
</style>
<g>
	<linearGradient id="SVGID_1_" gradientUnits="userSpaceOnUse" x1="17.6001" y1="256.0015" x2="494.5008" y2="256.0015">
		<stop  offset="0" style="stop-color:#7750F5"/>
		<stop  offset="1" style="stop-color:#2A95DC"/>
	</linearGradient>
	<path class="st0" d="M493.8,244.7l-25.2-56.4c-5.9-13.1-11.1-26.3-15.3-39.3c0,0,0-0.1,0-0.1C442.5,117.8,423,90.2,397,69.2
		c-26.6-21.5-58.3-34.6-91.8-38c-55.2-5.5-108.2,13.2-146.6,51.5h-43.2c-4.1,0-7.5,3.4-7.5,7.5v21.2c-4.9,1.6-9.7,3.6-14.4,6
		l-14.9-14.9c-2.9-2.9-7.7-2.9-10.6,0l-30.9,30.9c-2.9,2.9-2.9,7.7,0,10.6l14.9,14.9c-2.4,4.6-4.4,9.5-6,14.4H25.1
		c-4.1,0-7.5,3.4-7.5,7.5v43.6c0,4.1,3.4,7.5,7.5,7.5h21.1c1.6,4.9,3.6,9.7,6,14.4l-14.9,14.9c-2.9,2.9-2.9,7.7,0,10.6l30.9,30.9
		c2.9,2.9,7.7,2.9,10.6,0l14.9-14.9c4.6,2.4,9.5,4.4,14.4,6v21.1c0,4.1,3.4,7.5,7.5,7.5h27.4c16.4,26.4,25,57.3,25,89.7v62.3
		c0,4.1,3.4,7.5,7.5,7.5h161c4.1,0,7.5-3.4,7.5-7.5V383h49.6c36.3,0,66.9-30.6,66.9-66.9c0-12.1,2.8-23.9,8.2-34.8
		c5.5-10.9,13.2-20.1,22.9-27.5C494.3,251.7,495.3,247.9,493.8,244.7z M117.3,280.7c-7.4-1.9-14.5-4.8-21.2-8.8
		c-2.9-1.7-6.7-1.3-9.1,1.2l-13.6,13.6l-20.3-20.3l13.6-13.6c2.4-2.4,2.9-6.1,1.2-9.1c-4-6.9-7-14-8.8-21.3
		c-0.8-3.3-3.8-5.7-7.3-5.7H32.6v-28.6h19.2c3.4,0,6.4-2.3,7.3-5.7c1.9-7.4,4.8-14.5,8.8-21.2c1.7-2.9,1.3-6.7-1.2-9.1l-13.6-13.6
		l20.3-20.3L87,131.9c2.4,2.4,6.1,2.9,9.1,1.2c6.9-4,14-7,21.3-8.8c3.3-0.8,5.7-3.8,5.7-7.3V97.7h28.6V117c0,3.4,2.3,6.4,5.7,7.3
		c7.4,1.9,14.5,4.8,21.2,8.8c2.9,1.7,6.7,1.3,9.1-1.2l13.6-13.6l20.3,20.3l-13.6,13.6c-2.4,2.4-2.9,6.1-1.2,9.1c4,6.9,7,14,8.8,21.3
		c0.8,3.3,3.8,5.7,7.3,5.7H242v28.6h-19.2c-3.4,0-6.4,2.3-7.3,5.7c-1.9,7.4-4.8,14.5-8.8,21.2c-1.7,2.9-1.3,6.7,1.2,9.1l13.6,13.6
		l-20.3,20.3l-13.6-13.6c-2.4-2.4-6.1-2.9-9.1-1.2c-6.9,4-14,7-21.3,8.8c-3.3,0.8-5.7,3.8-5.7,7.3v19.2H123V288
		C123,284.6,120.7,281.6,117.3,280.7z M455.2,274.6c-6.5,13.1-9.8,27.1-9.8,41.5c0,28.1-23.8,51.9-51.9,51.9h-57.1
		c-4.1,0-7.5,3.4-7.5,7.5v91.2h-146v-54.8c0-32-7.8-62.8-22.7-89.8c3.6-0.5,6.4-3.6,6.4-7.4v-21.1c4.9-1.6,9.7-3.6,14.4-6l14.9,14.9
		c2.9,2.9,7.7,2.9,10.6,0l28.7-28.7h70.1v11.4c-10.5,3.2-18.2,13-18.2,24.6c0,14.2,11.5,25.7,25.7,25.7s25.7-11.5,25.7-25.7
		c0-11.6-7.7-21.4-18.2-24.6v-18.9c0-4.1-3.4-7.5-7.5-7.5h-77.6l-12.7-12.7c2.4-4.6,4.4-9.5,6-14.4h21.1c4.1,0,7.5-3.4,7.5-7.5V210
		h49.4c3.2,10.5,13,18.2,24.6,18.2c14.2,0,25.7-11.5,25.7-25.7s-11.5-25.7-25.7-25.7c-11.6,0-21.4,7.7-24.6,18.2H257v-14.3
		c0-4.1-3.4-7.5-7.5-7.5h-21.1c-1.6-4.9-3.6-9.7-6-14.4l12.8-12.8h77.5c4.1,0,7.5-3.4,7.5-7.5v-18.9c10.5-3.2,18.2-13,18.2-24.6
		c0-14.2-11.5-25.7-25.7-25.7S287.1,80.8,287.1,95c0,11.6,7.7,21.4,18.2,24.6V131h-70.2l-28.6-28.6c-2.9-2.9-7.7-2.9-10.6,0
		L181,117.3c-4.6-2.4-9.5-4.4-14.4-6V96c35.4-36.8,85.2-55,137.1-49.8c61.7,6.3,114.8,48.5,135.4,107.6c4.4,13.4,9.8,27.1,15.9,40.7
		l22.8,51.1C468.4,253.7,460.8,263.4,455.2,274.6z M312.8,299.2c5.9,0,10.7,4.8,10.7,10.7c0,5.9-4.8,10.7-10.7,10.7
		s-10.7-4.8-10.7-10.7C302.1,304,306.9,299.2,312.8,299.2z M320.3,202.5c0-5.9,4.8-10.7,10.7-10.7s10.7,4.8,10.7,10.7
		s-4.8,10.7-10.7,10.7S320.3,208.4,320.3,202.5z M312.8,105.7c-5.9,0-10.7-4.8-10.7-10.7s4.8-10.7,10.7-10.7s10.7,4.8,10.7,10.7
		S318.7,105.7,312.8,105.7z"/>
	<linearGradient id="SVGID_2_" gradientUnits="userSpaceOnUse" x1="76.6001" y1="202.5" x2="198" y2="202.5">
		<stop  offset="0" style="stop-color:#7750F5"/>
		<stop  offset="1" style="stop-color:#2A95DC"/>
	</linearGradient>
	<path class="st1" d="M198,202.5c0-33.5-27.2-60.7-60.7-60.7c-33.5,0-60.7,27.2-60.7,60.7s27.2,60.7,60.7,60.7
		C170.8,263.2,198,236,198,202.5z M91.6,202.5c0-25.2,20.5-45.7,45.7-45.7c25.2,0,45.7,20.5,45.7,45.7s-20.5,45.7-45.7,45.7
		C112.1,248.2,91.6,227.7,91.6,202.5z"/>
</g>
</svg>
